<svg id="Layer_1" data-name="Layer 1" xmlns="http://www.w3.org/2000/svg" viewBox="0 0 52.93 69.14"><defs><style>.cls-1{fill:#c4d9fa;}.cls-2{fill:#fff;}.cls-3,.cls-4,.cls-5{fill:none;stroke-miterlimit:10;}.cls-3,.cls-5{stroke:#0f059e;}.cls-3,.cls-4{stroke-width:1.74px;}.cls-4{stroke:#c4d9fa;}.cls-5{stroke-width:1.46px;}</style></defs><title>Website 4</title><rect class="cls-1" x="5.72" y="5.73" width="47.2" height="63.41"/><path class="cls-2" d="M45.73,64.28H3.21A2.34,2.34,0,0,1,.87,61.94V3.21A2.34,2.34,0,0,1,3.21.87H45.73a2.34,2.34,0,0,1,2.34,2.34V61.94a2.34,2.34,0,0,1-2.34,2.34"/><rect class="cls-3" x="0.87" y="0.87" width="47.2" height="63.41" rx="2.34" ry="2.34"/><path class="cls-4" d="M36.81,16.78H12.13a4.49,4.49,0,1,1,0-9H36.81a4.49,4.49,0,1,1,0,9Z"/><path class="cls-1" d="M15,26.45a3.67,3.67,0,1,1-3.66-3.67A3.66,3.66,0,0,1,15,26.45"/><path class="cls-5" d="M15,26.45a3.67,3.67,0,1,1-3.66-3.67A3.66,3.66,0,0,1,15,26.45Z"/><path class="cls-1" d="M28.13,26.45a3.66,3.66,0,1,1-3.66-3.67,3.66,3.66,0,0,1,3.66,3.67"/><path class="cls-5" d="M28.13,26.45a3.66,3.66,0,1,1-3.66-3.67A3.66,3.66,0,0,1,28.13,26.45Z"/><path class="cls-1" d="M41.3,26.45a3.67,3.67,0,1,1-3.67-3.67,3.66,3.66,0,0,1,3.67,3.67"/><path class="cls-5" d="M41.3,26.45a3.67,3.67,0,1,1-3.67-3.67A3.66,3.66,0,0,1,41.3,26.45Z"/><path class="cls-1" d="M15,39.3a3.67,3.67,0,1,1-3.66-3.67A3.66,3.66,0,0,1,15,39.3"/><path class="cls-5" d="M15,39.3a3.67,3.67,0,1,1-3.66-3.67A3.66,3.66,0,0,1,15,39.3Z"/><path class="cls-1" d="M28.13,39.3a3.66,3.66,0,1,1-3.66-3.67,3.66,3.66,0,0,1,3.66,3.67"/><path class="cls-5" d="M28.13,39.3a3.66,3.66,0,1,1-3.66-3.67A3.66,3.66,0,0,1,28.13,39.3Z"/><path class="cls-1" d="M15,52.15a3.67,3.67,0,1,1-3.66-3.66A3.66,3.66,0,0,1,15,52.15"/><path class="cls-5" d="M15,52.15a3.67,3.67,0,1,1-3.66-3.66A3.66,3.66,0,0,1,15,52.15Z"/><path class="cls-1" d="M28.13,52.15a3.66,3.66,0,1,1-3.66-3.66,3.66,3.66,0,0,1,3.66,3.66"/><path class="cls-5" d="M28.13,52.15a3.66,3.66,0,1,1-3.66-3.66A3.66,3.66,0,0,1,28.13,52.15Z"/><path class="cls-1" d="M37.63,35.63A3.66,3.66,0,0,0,34,39.3V52.15a3.67,3.67,0,0,0,7.33,0V39.3a3.67,3.67,0,0,0-3.67-3.67"/><path class="cls-5" d="M37.63,35.63A3.66,3.66,0,0,0,34,39.3V52.15a3.67,3.67,0,0,0,7.33,0V39.3A3.67,3.67,0,0,0,37.63,35.63Z"/></svg>