<svg id="Layer_1" data-name="Layer 1" xmlns="http://www.w3.org/2000/svg" viewBox="0 0 257.31 72.16"><defs><style>.cls-1{fill:#000f9f;}</style></defs><title>TNK Logo Blue</title><path class="cls-1" d="M102.79,24l2.95,2V26H94.2V26l2.91-2c.35-.24.42-.31.42-.77V2H94.44c-.56,0-.67,0-.91.63L89.88,10h-.07V1.37h20.28V10H110l-3.61-7.37c-.25-.53-.35-.63-.91-.63h-3.09V23.2c0,.46,0,.53.38.77"/><path class="cls-1" d="M115.74,21.06c0,1.89,1.05,3,2.42,3a3.22,3.22,0,0,0,2.63-1.65l.07-4.78a4.92,4.92,0,0,0-1.72-.28,3.37,3.37,0,0,0-3.4,3.69m5.19-7.41v-.14c0-2.56-1-4.35-3.23-4.35-.77,0-.84,0-1,.46l-2.46,4.94h-.07l-1.86-4.77a17.57,17.57,0,0,1,6.42-1.23c2.22,0,3.8.36,4.92,1.44s1.65,2.77,1.65,5.65v.64L125,21.87c-.07,1.47.31,2.21,1.16,2.21a1.09,1.09,0,0,0,1-.85h.07a2.47,2.47,0,0,1-.25,1.2,3.17,3.17,0,0,1-3,1.89c-1.75,0-3.19-1.16-3.22-3.58a4.9,4.9,0,0,1-4.78,3.58,4.49,4.49,0,0,1-4.66-4.74c0-3.47,3-5.23,5.79-5.23a6.2,6.2,0,0,1,3.68,1.06Z"/><path class="cls-1" d="M134.93,21.58c0,1.58.7,2.5,1.93,2.5a2.74,2.74,0,0,0,2.42-1.72l.07,0a4.48,4.48,0,0,1-4.74,3.93c-2.66,0-4.1-1.44-4.1-4.35V9.48h-2.22V8.85h1.79a.94.94,0,0,0,.95-.46l3.83-5.33h.07V8.85h4.67v.63h-4.67Z"/><path class="cls-1" d="M145.49,15.65h6.28a6,6,0,0,0,0-.66c0-4-.94-5.86-2.87-5.86s-3.27,2.21-3.44,6.52m0,.63v.57c0,4.66,2.24,6.91,5,6.91A5.63,5.63,0,0,0,156,19.93h.07c-.81,4.32-3.37,6.39-7.23,6.39-4.07,0-7.86-2.66-7.86-8.74,0-6.6,4.11-9,8-9,3.54,0,7.09,1.86,7.09,6.85a7.67,7.67,0,0,1-.07.87Z"/><path class="cls-1" d="M173.17,1.37,185.46,21V6a1.18,1.18,0,0,0-.5-1.09l-3.43-3.44V1.37h8.56v.07l-3.41,3.44c-.42.46-.52.56-.52,1.09V26h-3.27L170.36,6v15.4c0,.57.07.67.53,1.09L174.33,26V26h-8.6V26l3.44-3.44a1.19,1.19,0,0,0,.49-1.09V5.69a1.44,1.44,0,0,0-.38-1.16l-3.2-3.09V1.37Z"/><path class="cls-1" d="M195.27,17.41c0,6.42,1.34,8.35,3.44,8.35s3.48-1.89,3.48-8.32-1.37-8.31-3.48-8.31-3.44,1.85-3.44,8.28m-5,0c0-5.76,3.37-8.85,8.46-8.85s8.46,3.06,8.46,8.88-3.33,8.88-8.46,8.88-8.46-3.12-8.46-8.91"/><path class="cls-1" d="M215.59,23.69a.74.74,0,0,0,.39.77L218,26V26h-9.29V26l2.07-1.51a.76.76,0,0,0,.35-.77V3.76c0-.46,0-.57-.35-.81l-2.07-1.51V1.37l6.84-.81Z"/><path class="cls-1" d="M224.32,21.06c0,1.89,1.06,3,2.42,3a3.23,3.23,0,0,0,2.64-1.65l.07-4.78a4.92,4.92,0,0,0-1.72-.28,3.38,3.38,0,0,0-3.41,3.69m5.2-7.41v-.14c0-2.56-1-4.35-3.23-4.35-.77,0-.84,0-1,.46l-2.46,4.94h-.07l-1.86-4.77a17.57,17.57,0,0,1,6.42-1.23c2.21,0,3.79.36,4.91,1.44s1.65,2.77,1.65,5.65v.64l-.21,5.58c-.07,1.47.32,2.21,1.16,2.21a1.07,1.07,0,0,0,1.05-.85h.08a2.59,2.59,0,0,1-.25,1.2,3.18,3.18,0,0,1-3,1.89c-1.75,0-3.19-1.16-3.23-3.58a4.89,4.89,0,0,1-4.77,3.58A4.49,4.49,0,0,1,220,21.58c0-3.47,2.95-5.23,5.79-5.23a6.21,6.21,0,0,1,3.69,1.06Z"/><path class="cls-1" d="M247.62,11a3.67,3.67,0,0,0-3.19,2.15V23.69a.74.74,0,0,0,.38.77L246.88,26V26h-9.3V26l2.07-1.51a.74.74,0,0,0,.35-.77V11.48c0-.46,0-.56-.35-.81l-2.07-1.75V8.85h6.85v4c.84-2.81,2.66-4.29,5.37-4.29,3.29,0,5.12,2.32,5.12,7.16,0,1.93,0,5.16-.07,8a.75.75,0,0,0,.38.77L257.31,26V26H248V26l2-1.51a.76.76,0,0,0,.42-.73c0-.39.11-5.48.11-7,0-3.79-.74-5.73-2.88-5.73"/><path class="cls-1" d="M99.92,49.24a7,7,0,0,0,2.91-5.61c0-2.92-1.26-4.25-2.88-4.25-1.86,0-3,1.47-3,3.76,0,2,.84,3.75,3,6.1m-3.44,2.63a6.08,6.08,0,0,0-2.28,4.85,5.44,5.44,0,0,0,5.26,5.65A5.74,5.74,0,0,0,104,60.58c-.53-.53-1.06-1.13-1.62-1.79Zm19.09,5.37h.07a10.14,10.14,0,0,1,.07,1.09c0,3.69-2.28,5.9-5.3,5.9-2.25,0-4-1.16-6-3.27a9.67,9.67,0,0,1-7.12,3.27c-4.32,0-6.91-2.43-6.91-5.79s3-5.55,6-6.81c-2-2.28-3.09-4.18-3.09-6.64,0-3.58,2.6-6.14,6.85-6.14,3.54,0,6.17,1.58,6.17,4.74s-2.84,4.7-6.1,5.9l6,6.87a10.11,10.11,0,0,0,.84,1,20.94,20.94,0,0,0,2.42-3.93c.21-.45,0-.7-.35-1.19l-2.81-3.12V49h8.36v.08l-3.65,3.36a4.18,4.18,0,0,0-1,1.3,39.46,39.46,0,0,1-2.56,4c2.21,2.25,3.4,2.85,4.88,2.85s3-1.06,3.3-3.34"/><path class="cls-1" d="M136.72,48.64l8.17,12A5.85,5.85,0,0,0,146,61.84l2.28,2v.07h-6.95L133,51.66l8.28-8.7c.39-.42.29-.56-.1-1l-2.84-2.74V39.2h9.93v.07l-4.74,2.81a6.35,6.35,0,0,0-1.61,1.19Zm-4.07,12.5a.68.68,0,0,0,.42.77l2.7,1.9v.07H124.68v-.07l2.7-1.9a.71.71,0,0,0,.39-.77V41.94a.7.7,0,0,0-.39-.77l-2.7-1.9V39.2h11.09v.07l-2.7,1.9c-.39.28-.42.35-.42.77Z"/><path class="cls-1" d="M159.28,48.82a3.71,3.71,0,0,0-3.2,2.14V61.53a.74.74,0,0,0,.39.76l2.07,1.51v.08h-9.3V63.8l2.07-1.51a.73.73,0,0,0,.35-.76V49.31c0-.45,0-.56-.35-.81l-2.07-1.75v-.07h6.84v4c.85-2.81,2.67-4.28,5.37-4.28,3.3,0,5.13,2.31,5.13,7.16,0,1.93,0,5.16-.07,8a.74.74,0,0,0,.38.76L169,63.8v.08h-9.3V63.8l2-1.51a.75.75,0,0,0,.42-.73c0-.39.1-5.47.1-7,0-3.79-.73-5.72-2.87-5.72"/><path class="cls-1" d="M172.57,42.05a2.44,2.44,0,0,1,4.88,0,2.44,2.44,0,0,1-4.88,0m4.81,4.63V61.52a.75.75,0,0,0,.39.77l2.07,1.52v.07h-9.3v-.07l2.07-1.52a.76.76,0,0,0,.35-.77V49.31c0-.45,0-.56-.35-.81l-2.07-1.75v-.07Z"/><path class="cls-1" d="M189.34,57.24c1.79,0,2.71-1.61,2.71-5.16s-.92-5.16-2.71-5.16-2.7,1.62-2.7,5.16,1,5.16,2.7,5.16m-3.19,7.58a2.91,2.91,0,0,0-1.79,2.74c0,2.6,2.7,3.93,5.44,3.93S195,70.3,195,67.81c0-1.62-1-2.67-3.89-2.78L187,64.89Zm3-18.42a8.44,8.44,0,0,1,4.36,1.05c.31.18.38.18.66-.14l3.51-4.24h.07v5.29h-3.26a4.8,4.8,0,0,1,1.89,3.93c0,3.72-3.23,5.51-7.12,5.51a10.34,10.34,0,0,1-2.35-.24c-1.23.35-1.65,1-1.65,1.61,0,.95,1.08,1.62,3.26,1.62h3c4,0,6.28,1.68,6.28,4.81,0,4.14-4.14,6.56-9,6.56-3.51,0-7.16-1.26-7.16-3.9,0-1.61,1.3-3,4.07-3.51-2.14-.45-3.29-1.79-3.29-3.44,0-1.82,1.5-3.29,4-3.89a5.28,5.28,0,0,1-4.22-5.3c0-3.83,3.13-5.72,6.95-5.72"/><path class="cls-1" d="M217.06,62.29l2.11,1.52v.07h-9.34v-.07l2-1.52a.77.77,0,0,0,.39-.73c0-.39.1-5.47.1-7,0-3.79-.73-5.72-2.87-5.72a3.74,3.74,0,0,0-3.2,2.14V61.52a.75.75,0,0,0,.39.77l2.07,1.52v.07h-9.3v-.07l2.07-1.52a.74.74,0,0,0,.35-.77V41.59c0-.46,0-.56-.35-.81l-2.07-1.51V39.2l6.84-.8V50.68c.85-2.81,2.67-4.28,5.37-4.28,3.3,0,5.12,2.31,5.12,7.16,0,1.93,0,5.16-.06,8a.73.73,0,0,0,.38.77"/><path class="cls-1" d="M226.74,59.42c0,1.58.7,2.49,1.93,2.49a2.72,2.72,0,0,0,2.42-1.72l.07,0a4.48,4.48,0,0,1-4.73,3.93c-2.67,0-4.11-1.44-4.11-4.36V47.31h-2.21v-.63h1.79a1,1,0,0,0,.95-.46l3.82-5.33h.07v5.79h4.67v.63h-4.67Z"/><path class="cls-1" d="M45.78,3l-13,13a.18.18,0,0,1-.25,0l-13-13a.18.18,0,0,1,.05-.29,32.71,32.71,0,0,1,26.21,0,.18.18,0,0,1,.05.29"/><path class="cls-1" d="M24.2,13.69H6.41a.19.19,0,0,1-.15-.29,32.92,32.92,0,0,1,9.29-8.58.18.18,0,0,1,.23,0l8.55,8.55a.18.18,0,0,1-.13.3"/><path class="cls-1" d="M58.84,13.69H41.05a.18.18,0,0,1-.13-.3l8.55-8.55a.17.17,0,0,1,.22,0A32.82,32.82,0,0,1,59,13.4a.19.19,0,0,1-.15.29"/><path class="cls-1" d="M13,32.76,2.17,43.59a.18.18,0,0,1-.3-.06,32.76,32.76,0,0,1,0-21.79.18.18,0,0,1,.3-.06L13,32.51a.2.2,0,0,1,0,.25"/><path class="cls-1" d="M17.74,31.48,31.32,17.9a.18.18,0,0,0-.12-.3H4a.17.17,0,0,0-.12.3L17.49,31.48a.18.18,0,0,0,.25,0"/><path class="cls-1" d="M47.51,31.48,33.93,17.9a.18.18,0,0,1,.12-.3H61.22a.17.17,0,0,1,.12.3L47.76,31.48a.18.18,0,0,1-.25,0"/><path class="cls-1" d="M17.61,34.07V47.48a.18.18,0,0,1-.17.17H4a.18.18,0,0,1-.12-.3L17.31,34a.17.17,0,0,1,.3.12"/><path class="cls-1" d="M61.22,47.65H47.81a.17.17,0,0,1-.17-.17V34.07a.18.18,0,0,1,.3-.13l13.4,13.41a.17.17,0,0,1-.12.3"/><path class="cls-1" d="M65.25,32.62a32.55,32.55,0,0,1-1.87,10.91.18.18,0,0,1-.3.06L52.25,32.76a.18.18,0,0,1,0-.25L63.09,21.68a.18.18,0,0,1,.3.06,32.42,32.42,0,0,1,1.86,10.88"/><path class="cls-1" d="M45.78,62.22a.18.18,0,0,1-.05.29,32.71,32.71,0,0,1-26.21,0,.18.18,0,0,1-.05-.29l13-13a.18.18,0,0,1,.25,0Z"/><path class="cls-1" d="M24.33,51.86,15.78,60.4a.18.18,0,0,1-.22,0,32.71,32.71,0,0,1-9.3-8.59.18.18,0,0,1,.15-.28H24.2a.18.18,0,0,1,.13.3"/><path class="cls-1" d="M59,51.84a32.81,32.81,0,0,1-9.29,8.59.2.2,0,0,1-.23,0l-8.55-8.54a.18.18,0,0,1,.13-.31H58.84a.19.19,0,0,1,.15.29"/></svg>